<svg width="176" height="119" viewBox="0 0 176 119" fill="none" xmlns="http://www.w3.org/2000/svg">
<path d="M21.54 56.84C18.66 56.84 16.08 56.4 13.8 55.52C11.52 54.6 9.56 53.28 7.92 51.56C6.32 49.8 5.08 47.66 4.2 45.14C3.36 42.58 2.94 39.66 2.94 36.38C2.94 31.7 3.76 27.84 5.4 24.8C7.04 21.72 9.28 19.42 12.12 17.9C15 16.34 18.24 15.56 21.84 15.56C24.64 15.56 27.18 16.02 29.46 16.94C31.74 17.82 33.68 19.14 35.28 20.9C36.92 22.62 38.18 24.78 39.06 27.38C39.94 29.94 40.38 32.88 40.38 36.2C40.38 39.6 39.94 42.58 39.06 45.14C38.18 47.7 36.9 49.86 35.22 51.62C33.58 53.34 31.6 54.64 29.28 55.52C26.96 56.4 24.38 56.84 21.54 56.84ZM21.78 49.94C23.9 49.94 25.68 49.42 27.12 48.38C28.56 47.34 29.66 45.84 30.42 43.88C31.18 41.92 31.56 39.52 31.56 36.68C31.56 33.72 31.16 31.2 30.36 29.12C29.6 27.04 28.48 25.46 27 24.38C25.52 23.26 23.72 22.7 21.6 22.7C19.52 22.7 17.74 23.24 16.26 24.32C14.82 25.36 13.7 26.88 12.9 28.88C12.14 30.88 11.76 33.36 11.76 36.32C11.76 38.48 11.98 40.42 12.42 42.14C12.9 43.82 13.56 45.24 14.4 46.4C15.24 47.56 16.28 48.44 17.52 49.04C18.76 49.64 20.18 49.94 21.78 49.94Z" fill="black"/>
<path d="M62.04 56.84C60.04 56.84 58.3 56.46 56.82 55.7C55.34 54.9 54.14 53.76 53.22 52.28C52.3 50.8 51.66 49 51.3 46.88H50.16L50.1 56H42.96V40.52V13.1H51.6V23.42C51.6 24.38 51.54 25.42 51.42 26.54C51.3 27.62 51.12 28.74 50.88 29.9C50.68 31.06 50.46 32.26 50.22 33.5H51.54C52.06 31.5 52.76 29.78 53.64 28.34C54.56 26.86 55.72 25.74 57.12 24.98C58.52 24.18 60.18 23.78 62.1 23.78C64.74 23.78 67.02 24.46 68.94 25.82C70.86 27.18 72.34 29.1 73.38 31.58C74.46 34.06 75 37 75 40.4C75 43.72 74.48 46.62 73.44 49.1C72.4 51.54 70.9 53.44 68.94 54.8C67.02 56.16 64.72 56.84 62.04 56.84ZM58.98 49.76C60.42 49.76 61.66 49.38 62.7 48.62C63.74 47.82 64.54 46.7 65.1 45.26C65.66 43.82 65.94 42.14 65.94 40.22C65.94 38.3 65.66 36.64 65.1 35.24C64.58 33.84 63.82 32.74 62.82 31.94C61.82 31.14 60.6 30.74 59.16 30.74C58.2 30.74 57.32 30.92 56.52 31.28C55.72 31.64 55.02 32.14 54.42 32.78C53.82 33.38 53.3 34.08 52.86 34.88C52.42 35.64 52.1 36.44 51.9 37.28C51.7 38.12 51.6 38.92 51.6 39.68V40.82C51.6 41.74 51.74 42.74 52.02 43.82C52.3 44.86 52.74 45.84 53.34 46.76C53.98 47.64 54.76 48.36 55.68 48.92C56.6 49.48 57.7 49.76 58.98 49.76Z" fill="black"/>
<path d="M92.24 56.84C89.08 56.84 86.3 56.22 83.9 54.98C81.5 53.7 79.62 51.84 78.26 49.4C76.9 46.92 76.22 43.84 76.22 40.16C76.22 36.48 76.9 33.42 78.26 30.98C79.66 28.54 81.56 26.72 83.96 25.52C86.4 24.28 89.16 23.66 92.24 23.66C95.4 23.66 98.18 24.28 100.58 25.52C103.02 26.76 104.92 28.62 106.28 31.1C107.68 33.54 108.38 36.6 108.38 40.28C108.38 44 107.66 47.1 106.22 49.58C104.82 52.02 102.9 53.84 100.46 55.04C98.06 56.24 95.32 56.84 92.24 56.84ZM92.54 50.42C94.1 50.42 95.4 50.06 96.44 49.34C97.52 48.62 98.32 47.54 98.84 46.1C99.4 44.62 99.68 42.84 99.68 40.76C99.68 38.56 99.38 36.7 98.78 35.18C98.22 33.62 97.38 32.44 96.26 31.64C95.14 30.8 93.72 30.38 92 30.38C90.52 30.38 89.24 30.74 88.16 31.46C87.08 32.14 86.26 33.22 85.7 34.7C85.14 36.14 84.86 37.92 84.86 40.04C84.86 43.44 85.54 46.02 86.9 47.78C88.26 49.54 90.14 50.42 92.54 50.42Z" fill="black"/>
<path d="M109.96 58V15.1H118.48V38.92C119.72 38.08 120.9 37.18 122.02 36.22C123.18 35.22 124.22 34.18 125.14 33.1C126.1 32.02 126.94 30.92 127.66 29.8C128.42 28.68 129.06 27.58 129.58 26.5H139.48C138.88 28.02 138.08 29.56 137.08 31.12C136.12 32.64 134.96 34.06 133.6 35.38C132.28 36.66 130.74 37.76 128.98 38.68C127.22 39.6 125.28 40.22 123.16 40.54V41.56C125.84 41.08 128.06 41.12 129.82 41.68C131.58 42.24 133.02 43.14 134.14 44.38C135.3 45.58 136.22 46.98 136.9 48.58C137.58 50.14 138.2 51.72 138.76 53.32L140.14 58H130.72L129.94 55.06C129.38 53.1 128.76 51.38 128.08 49.9C127.4 48.42 126.5 47.28 125.38 46.48C124.3 45.64 122.8 45.22 120.88 45.22H118.48V58H109.96Z" fill="black"/>
<path d="M94.04 99.84C92.04 99.84 90.3 99.46 88.82 98.7C87.34 97.9 86.14 96.76 85.22 95.28C84.3 93.8 83.66 92 83.3 89.88H82.16L82.1 99H74.96V83.52V56.1H83.6V66.42C83.6 67.38 83.54 68.42 83.42 69.54C83.3 70.62 83.12 71.74 82.88 72.9C82.68 74.06 82.46 75.26 82.22 76.5H83.54C84.06 74.5 84.76 72.78 85.64 71.34C86.56 69.86 87.72 68.74 89.12 67.98C90.52 67.18 92.18 66.78 94.1 66.78C96.74 66.78 99.02 67.46 100.94 68.82C102.86 70.18 104.34 72.1 105.38 74.58C106.46 77.06 107 80 107 83.4C107 86.72 106.48 89.62 105.44 92.1C104.4 94.54 102.9 96.44 100.94 97.8C99.02 99.16 96.72 99.84 94.04 99.84ZM90.98 92.76C92.42 92.76 93.66 92.38 94.7 91.62C95.74 90.82 96.54 89.7 97.1 88.26C97.66 86.82 97.94 85.14 97.94 83.22C97.94 81.3 97.66 79.64 97.1 78.24C96.58 76.84 95.82 75.74 94.82 74.94C93.82 74.14 92.6 73.74 91.16 73.74C90.2 73.74 89.32 73.92 88.52 74.28C87.72 74.64 87.02 75.14 86.42 75.78C85.82 76.38 85.3 77.08 84.86 77.88C84.42 78.64 84.1 79.44 83.9 80.28C83.7 81.12 83.6 81.92 83.6 82.68V83.82C83.6 84.74 83.74 85.74 84.02 86.82C84.3 87.86 84.74 88.84 85.34 89.76C85.98 90.64 86.76 91.36 87.68 91.92C88.6 92.48 89.7 92.76 90.98 92.76Z" fill="black"/>
<path d="M124.24 99.84C121.08 99.84 118.3 99.22 115.9 97.98C113.5 96.7 111.62 94.84 110.26 92.4C108.9 89.92 108.22 86.84 108.22 83.16C108.22 79.48 108.9 76.42 110.26 73.98C111.66 71.54 113.56 69.72 115.96 68.52C118.4 67.28 121.16 66.66 124.24 66.66C127.4 66.66 130.18 67.28 132.58 68.52C135.02 69.76 136.92 71.62 138.28 74.1C139.68 76.54 140.38 79.6 140.38 83.28C140.38 87 139.66 90.1 138.22 92.58C136.82 95.02 134.9 96.84 132.46 98.04C130.06 99.24 127.32 99.84 124.24 99.84ZM124.54 93.42C126.1 93.42 127.4 93.06 128.44 92.34C129.52 91.62 130.32 90.54 130.84 89.1C131.4 87.62 131.68 85.84 131.68 83.76C131.68 81.56 131.38 79.7 130.78 78.18C130.22 76.62 129.38 75.44 128.26 74.64C127.14 73.8 125.72 73.38 124 73.38C122.52 73.38 121.24 73.74 120.16 74.46C119.08 75.14 118.26 76.22 117.7 77.7C117.14 79.14 116.86 80.92 116.86 83.04C116.86 86.44 117.54 89.02 118.9 90.78C120.26 92.54 122.14 93.42 124.54 93.42Z" fill="black"/>
<path d="M57.24 99.84C54.08 99.84 51.3 99.22 48.9 97.98C46.5 96.7 44.62 94.84 43.26 92.4C41.9 89.92 41.22 86.84 41.22 83.16C41.22 79.48 41.9 76.42 43.26 73.98C44.66 71.54 46.56 69.72 48.96 68.52C51.4 67.28 54.16 66.66 57.24 66.66C60.4 66.66 63.18 67.28 65.58 68.52C68.02 69.76 69.92 71.62 71.28 74.1C72.68 76.54 73.38 79.6 73.38 83.28C73.38 87 72.66 90.1 71.22 92.58C69.82 95.02 67.9 96.84 65.46 98.04C63.06 99.24 60.32 99.84 57.24 99.84ZM57.54 93.42C59.1 93.42 60.4 93.06 61.44 92.34C62.52 91.62 63.32 90.54 63.84 89.1C64.4 87.62 64.68 85.84 64.68 83.76C64.68 81.56 64.38 79.7 63.78 78.18C63.22 76.62 62.38 75.44 61.26 74.64C60.14 73.8 58.72 73.38 57 73.38C55.52 73.38 54.24 73.74 53.16 74.46C52.08 75.14 51.26 76.22 50.7 77.7C50.14 79.14 49.86 80.92 49.86 83.04C49.86 86.44 50.54 89.02 51.9 90.78C53.26 92.54 55.14 93.42 57.54 93.42Z" fill="black"/>
<path d="M141.96 99V56.1H150.48V79.92C151.72 79.08 152.9 78.18 154.02 77.22C155.18 76.22 156.22 75.18 157.14 74.1C158.1 73.02 158.94 71.92 159.66 70.8C160.42 69.68 161.06 68.58 161.58 67.5H171.48C170.88 69.02 170.08 70.56 169.08 72.12C168.12 73.64 166.96 75.06 165.6 76.38C164.28 77.66 162.74 78.76 160.98 79.68C159.22 80.6 157.28 81.22 155.16 81.54V82.56C157.84 82.08 160.06 82.12 161.82 82.68C163.58 83.24 165.02 84.14 166.14 85.38C167.3 86.58 168.22 87.98 168.9 89.58C169.58 91.14 170.2 92.72 170.76 94.32L172.14 99H162.72L161.94 96.06C161.38 94.1 160.76 92.38 160.08 90.9C159.4 89.42 158.5 88.28 157.38 87.48C156.3 86.64 154.8 86.22 152.88 86.22H150.48V99H141.96Z" fill="black"/>
<path d="M21.68 99.84C19.08 99.84 16.74 99.58 14.66 99.06C12.62 98.58 10.86 97.84 9.38 96.84C7.94 95.8 6.8 94.52 5.96 93C5.16 91.44 4.7 89.66 4.58 87.66L12.14 85.2C12.22 87 12.66 88.5 13.46 89.7C14.3 90.9 15.48 91.78 17 92.34C18.52 92.9 20.22 93.18 22.1 93.18C23.9 93.18 25.42 92.96 26.66 92.52C27.9 92.08 28.84 91.5 29.48 90.78C30.12 90.02 30.44 89.2 30.44 88.32C30.44 87.28 30.04 86.44 29.24 85.8C28.44 85.16 27.34 84.62 25.94 84.18C24.58 83.74 23.02 83.32 21.26 82.92C19.3 82.48 17.36 81.98 15.44 81.42C13.56 80.86 11.84 80.14 10.28 79.26C8.76 78.38 7.54 77.24 6.62 75.84C5.74 74.44 5.3 72.68 5.3 70.56C5.3 68.12 5.9 66.02 7.1 64.26C8.34 62.46 10.14 61.06 12.5 60.06C14.86 59.06 17.7 58.56 21.02 58.56C24.38 58.56 27.24 59.06 29.6 60.06C32 61.02 33.86 62.4 35.18 64.2C36.5 65.96 37.22 68.06 37.34 70.5L29.54 72.66C29.54 71.42 29.34 70.34 28.94 69.42C28.54 68.5 27.98 67.74 27.26 67.14C26.54 66.5 25.64 66.02 24.56 65.7C23.52 65.38 22.32 65.22 20.96 65.22C19.4 65.22 18.04 65.42 16.88 65.82C15.76 66.22 14.9 66.76 14.3 67.44C13.74 68.12 13.46 68.92 13.46 69.84C13.46 70.92 13.9 71.82 14.78 72.54C15.7 73.22 16.9 73.78 18.38 74.22C19.9 74.66 21.56 75.08 23.36 75.48C25.08 75.84 26.82 76.3 28.58 76.86C30.38 77.38 32.04 78.08 33.56 78.96C35.12 79.8 36.36 80.96 37.28 82.44C38.24 83.88 38.72 85.7 38.72 87.9C38.72 90.3 38.08 92.4 36.8 94.2C35.52 96 33.6 97.4 31.04 98.4C28.52 99.36 25.4 99.84 21.68 99.84Z" fill="black"/>
</svg>
